<?xml version="1.0" encoding="UTF-8" standalone="no"?>
<!-- Created with Inkscape (http://www.inkscape.org/) -->

<svg
   xmlns:dc="http://purl.org/dc/elements/1.1/"
   xmlns:cc="http://creativecommons.org/ns#"
   xmlns:rdf="http://www.w3.org/1999/02/22-rdf-syntax-ns#"
   xmlns:svg="http://www.w3.org/2000/svg"
   xmlns="http://www.w3.org/2000/svg"
   xmlns:sodipodi="http://sodipodi.sourceforge.net/DTD/sodipodi-0.dtd"
   xmlns:inkscape="http://www.inkscape.org/namespaces/inkscape"
   width="8mm"
   height="8mm"
   viewBox="0 0 185.70121 217.95312"
   id="svg6504"
   version="1.1"
   inkscape:version="0.91 r"
   sodipodi:docname="padlock.svg">
  <defs
     id="defs6506" />
  <sodipodi:namedview
     id="base"
     pagecolor="#ffffff"
     bordercolor="#666666"
     borderopacity="1.0"
     inkscape:pageopacity="0"
     inkscape:pageshadow="2"
     inkscape:zoom="2.6565345"
     inkscape:cx="92.850605"
     inkscape:cy="108.97656"
     inkscape:document-units="px"
     inkscape:current-layer="layer1"
     showgrid="false"
     fit-margin-top="0"
     fit-margin-left="0"
     fit-margin-right="0"
     fit-margin-bottom="0"
     inkscape:window-width="1324"
     inkscape:window-height="748"
     inkscape:window-x="40"
     inkscape:window-y="-3"
     inkscape:window-maximized="1" />
  <metadata
     id="metadata6509">
    <rdf:RDF>
      <cc:Work
         rdf:about="">
        <dc:format>image/svg+xml</dc:format>
        <dc:type
           rdf:resource="http://purl.org/dc/dcmitype/StillImage" />
        <dc:title></dc:title>
      </cc:Work>
    </rdf:RDF>
  </metadata>
  <g
     inkscape:label="Layer 1"
     inkscape:groupmode="layer"
     id="layer1"
     transform="translate(-52.863686,-566.24279)">
    <path
       style="opacity:1;fill:#008000;fill-opacity:1;fill-rule:nonzero;stroke:none;stroke-width:2;stroke-linecap:butt;stroke-linejoin:miter;stroke-miterlimit:4;stroke-dasharray:none;stroke-dashoffset:0;stroke-opacity:1"
       d="M 81.115234 0 C 49.770334 0 24.537109 25.235198 24.537109 56.580078 L 24.537109 94.292969 L 0 94.292969 L 0 188.95508 C 0 205.01937 12.933747 217.95312 28.998047 217.95312 L 156.70312 217.95312 C 172.76763 217.95312 185.70117 205.01937 185.70117 188.95508 L 185.70117 94.292969 L 161.16406 94.292969 L 161.16406 56.580078 C 161.16406 25.235198 135.93074 0 104.58594 0 L 81.115234 0 z M 84.111328 17.291016 L 101.58984 17.291016 C 124.93174 17.291016 143.72266 36.083851 143.72266 59.425781 L 143.72266 65.226562 L 143.72266 88.492188 L 143.72266 94.292969 L 41.978516 94.292969 L 41.978516 88.492188 L 41.978516 65.226562 L 41.978516 59.425781 C 41.978516 36.083851 60.769328 17.291016 84.111328 17.291016 z M 92.849609 114.45312 A 16.776493 16.776493 0 0 1 109.62695 131.22852 A 16.776493 16.776493 0 0 1 99.998047 146.38672 L 106.77734 197.79297 L 93.279297 197.79297 L 92.421875 197.79297 L 78.923828 197.79297 L 85.703125 146.38281 A 16.776493 16.776493 0 0 1 76.074219 131.22852 A 16.776493 16.776493 0 0 1 92.849609 114.45312 z "
       transform="translate(52.863686,566.24279)"
       id="rect6452" />
  </g>
</svg>
