<?xml version="1.0" encoding="UTF-8"?>
<svg xmlns="http://www.w3.org/2000/svg" xmlns:xlink="http://www.w3.org/1999/xlink" width="24pt" height="24pt" viewBox="0 0 24 24" version="1.1">
<g id="surface1">
<path style=" stroke:none;fill-rule:nonzero;fill:rgb(0%,50.196078%,0%);fill-opacity:1;" d="M 10.464844 0 C 6.421875 0 3.167969 2.777344 3.167969 6.230469 L 3.167969 10.382812 L 0 10.382812 L 0 20.800781 C 0 22.570312 1.667969 23.996094 3.742188 23.996094 L 20.21875 23.996094 C 22.292969 23.996094 23.960938 22.570312 23.960938 20.800781 L 23.960938 10.382812 L 20.796875 10.382812 L 20.796875 6.230469 C 20.796875 2.777344 17.539062 0 13.496094 0 Z M 10.851562 1.902344 L 13.109375 1.902344 C 16.121094 1.902344 18.542969 3.972656 18.542969 6.542969 L 18.542969 10.382812 L 5.417969 10.382812 L 5.417969 6.542969 C 5.417969 3.972656 7.839844 1.902344 10.851562 1.902344 Z M 11.980469 12.601562 C 13.175781 12.601562 14.144531 13.425781 14.144531 14.445312 C 14.144531 15.160156 13.660156 15.8125 12.902344 16.117188 L 13.777344 21.773438 L 10.183594 21.773438 L 11.058594 16.117188 C 10.300781 15.8125 9.816406 15.160156 9.816406 14.445312 C 9.816406 13.425781 10.785156 12.601562 11.980469 12.601562 Z M 11.980469 12.601562 "/>
</g>
</svg>
