<?xml version="1.0" encoding="UTF-8" standalone="no"?>
<!--part of the rodentia icon theme by sixsixfive released under CC0 (https://creativecommons.org/publicdomain/zero/1.0/) on openclipart-->
<svg xmlns="http://www.w3.org/2000/svg" xmlns:xlink="http://www.w3.org/1999/xlink" viewBox="0 0 48 48">
 <defs id="0">
  <linearGradient id="8">
   <stop id="G" stop-color="#fff"/>
   <stop id="H" offset="1" stop-color="#fff" stop-opacity="0"/>
  </linearGradient>
  <linearGradient id="9">
   <stop id="I" stop-color="#fff" stop-opacity="0.5"/>
   <stop id="J" offset="1" stop-color="#fff" stop-opacity="0"/>
  </linearGradient>
  <linearGradient id="A">
   <stop id="K" stop-color="#2e3436"/>
   <stop id="L" offset="1" stop-color="#2e3436" stop-opacity="0"/>
  </linearGradient>
  <linearGradient id="B">
   <stop id="M" stop-color="#eee"/>
   <stop id="N" offset="1" stop-color="#dcdcdc"/>
  </linearGradient>
  <radialGradient cx="60.05" cy="51.39" r="15.03" id="C" xlink:href="#B" gradientUnits="userSpaceOnUse" gradientTransform="matrix(-1.404511,1.1888571,-1,-1.1813958,199.73811,11.750541)"/>
  <radialGradient cx="25.02" cy="44.3" r="16.727" id="D" xlink:href="#A" gradientUnits="userSpaceOnUse" gradientTransform="matrix(1,0,0,0.11504424,0,39.202918)"/>
  <linearGradient y1="5.265" x2="0" y2="42.603" id="E" xlink:href="#9" gradientUnits="userSpaceOnUse"/>
  <linearGradient x1="-4.455" y1="-33.449" x2="31.07" y2="39.677" id="F" xlink:href="#8" gradientUnits="userSpaceOnUse"/>
 </defs>
 <path d="m 41.743937,44.299297 a 16.727181,1.9243659 0 1 1 -33.4543614,0 16.727181,1.9243659 0 1 1 33.4543614,0 z" transform="matrix(1,0,0,1.4615385,-1.0167561,-21.157663)" id="1" opacity="0.8" fill="url(#D)"/>
 <path d="M 44,24 A 20,19.997948 0 1 1 4.0000001,24 20,19.997948 0 1 1 44,24 z" id="2" fill="#8f5902"/>
 <path d="M 22.75,5.375 C 8.615336,5.6267023 0.00192621,23.952757 8.9375,35.0625 L 8.90625,35.09375 C 17.018382,47.079005 37.344698,44.11383 41.5625,30.25 l 0.03125,0 c 0.0076,-0.01959 -0.0075,-0.0429 0,-0.0625 C 46.258402,17.976792 35.858956,4.2337465 22.8125,5.375 c -0.02148,0.00188 -0.041,-0.00196 -0.0625,0 z" id="3" fill="#c17d11"/>
 <path d="m 25.15625,5.78125 c -0.763464,-0.037384 -1.558056,-0.00768 -2.34375,0.0625 -0.01047,9.351e-4 -0.02078,-9.548e-4 -0.03125,0 C 9.0161224,6.0630086 0.55495532,24.017662 9.3125,34.8125 c 7.891282,11.658961 27.769934,8.786369 31.84375,-4.71875 0.0029,-0.0095 -0.0029,-0.02172 0,-0.03125 4.28647,-11.160212 -4.405284,-23.7135002 -16,-24.28125 z" id="4" fill="none" stroke="url(#E)"/>
 <path d="m 24,9.78125 c -5.548614,-0.004 -9.974176,4.752449 -10.0625,10.4375 -1.161117,0.886227 -2.03125,2.159154 -2.03125,3.71875 l 0,9.4375 c 0,2.642136 2.156476,4.84375 4.8125,4.84375 l 14.53125,0 c 2.656024,0 4.84375,-2.187726 4.84375,-4.84375 l 0,-9.4375 c 0,-1.583703 -0.866724,-2.892437 -2.0625,-3.78125 C 33.919249,14.503553 29.525016,9.7851123 24,9.78125 z M 23.90625,16.625 c 1.702027,0.0011 2.770201,1.131864 3,2.46875 l -6.03125,0 c 0.238001,-1.327651 1.33491,-2.469937 3.03125,-2.46875 z" id="5" color="#000" stroke-width="1.5" fill="#8f5902"/>
 <path d="m 24,11.093244 c -4.849135,-0.0035 -8.775789,4.189162 -8.779357,9.276301 -1.05e-4,0.135749 -8.84e-4,0.252865 0,0.386513 -1.189715,0.566603 -2.015387,1.764783 -2.015387,3.174925 l 0,9.441949 c 0,1.955978 1.550243,3.533829 3.506221,3.533829 l 14.549437,0 c 1.955978,0 3.53383,-1.577851 3.53383,-3.533829 l 0,-9.441949 c 0,-1.423379 -0.835117,-2.642882 -2.042995,-3.202533 1.29e-4,-0.128502 -9.4e-5,-0.223999 0,-0.358905 C 32.755349,15.283847 28.848003,11.096633 24,11.093244 z m -0.08282,4.22403 c 2.542988,0.0017 4.501712,1.884463 4.50011,4.168814 l 0,0.911065 -9.027829,0 0,-0.911065 c 0.0014,-2.280829 1.985846,-4.170593 4.527719,-4.168814 z" id="6" color="#000" stroke-width="1.5" fill="#eeeeec"/>
 <path d="M 24.03125,5.3125 C 23.629097,5.31959 23.220202,5.339336 22.8125,5.375 22.79102,5.37688 22.7715,5.37304 22.75,5.375 9.3832209,5.6130282 0.97570212,22.010419 7.65625,33.1875 15.951602,23.656353 28.103471,17.700903 40.84375,16.0625 37.811665,9.8109828 31.430863,5.1819654 24.03125,5.3125 z" id="7" opacity="0.6" fill="url(#F)"/>
</svg>
